mtllib cmn_obj_trickpanel30_SD.mtl

v -7.910645 0.728516 12.269043
v -5.564941 2.549316 9.114746
v -7.912598 2.549316 9.114746
v 5.577637 2.549316 9.114746
v 7.915039 0.728516 12.269043
v 7.919434 2.549316 9.114746
v -7.906250 1.955566 -11.479004
v -7.906250 0.240234 11.354492
v -7.906250 1.955566 8.625000
v -7.906250 -3.165527 11.354492
v -7.906250 -3.165527 -11.479004
v 7.955566 14.083008 -10.862793
v 5.577637 14.306641 -11.739746
v 5.577637 14.083008 -10.862793
v 7.955566 14.306641 -11.739746
v 7.971680 0.240234 11.354492
v 7.981445 1.955566 -11.479004
v 7.955566 1.955566 8.625000
v 7.971680 -3.165527 11.354492
v 5.577637 8.312988 -0.868164
v 7.955566 14.083008 -10.862793
v 5.577637 14.083008 -10.862793
v 7.955566 8.312988 -0.868164
v 5.577637 8.312988 -0.868164
v 7.919434 2.549316 9.114746
v 7.955566 8.312988 -0.868164
v 5.577637 2.549316 9.114746
v -7.931152 14.083008 -10.862793
v -5.571289 14.306641 -11.739746
v -7.931152 14.306641 -11.739746
v -5.564941 14.083008 -10.862793
v -7.910645 -0.153809 11.623535
v 7.915039 0.728516 12.269043
v -7.910645 0.728516 12.269043
v 7.915039 -0.153809 11.623535
v -5.564941 8.312988 -0.868164
v -7.931152 14.083008 -10.862793
v -7.931152 8.312988 -0.868164
v -5.564941 14.083008 -10.862793
v 7.981445 13.298828 -11.479004
v -7.906250 1.955566 -11.479004
v -7.906250 13.298828 -11.479004
v 7.981445 1.955566 -11.479004
v -5.564941 8.312988 -0.868164
v -7.912598 2.549316 9.114746
v -5.564941 2.549316 9.114746
v -7.931152 8.312988 -0.868164
v 7.971680 0.240234 11.354492
v -7.906250 -3.165527 11.354492
v 7.971680 -3.165527 11.354492
v -7.906250 0.240234 11.354492
v 7.981445 1.955566 -11.479004
v -7.906250 -3.165527 -11.479004
v -7.906250 1.955566 -11.479004
v 7.981445 -3.165527 -11.479004
v 7.981445 1.955566 -11.479004
v 7.981445 13.298828 -11.479004
v 7.955566 1.955566 8.625000
v 7.981445 -3.165527 -11.479004
v -7.906250 13.298828 -11.479004
v -7.906250 1.955566 -11.479004
v -7.906250 1.955566 8.625000

vt 0.369629 0.996704
vt 0.138641 0.841034
vt 0.138641 0.996704
vt 0.138641 0.144806
vt 0.369629 0.003204
vt 0.138641 0.003204
vt 0.402374 0.744232
vt 0.402374 0.669434
vt 0.402374 0.744232
vt 0.402374 0.520905
vt 0.402374 0.520905
vt 0.000977 0.915131
vt 0.134583 0.996002
vt 0.134583 0.915131
vt 0.000977 0.996002
vt 0.988708 0.669434
vt 0.989075 0.744232
vt 0.988129 0.744232
vt 0.988708 0.520905
vt 0.002167 0.005707
vt 0.137207 0.856537
vt 0.002167 0.856537
vt 0.137207 0.005707
vt 0.002167 0.856537
vt 0.137207 0.005707
vt 0.137207 0.856537
vt 0.002167 0.005707
vt 0.000977 0.915131
vt 0.134583 0.996002
vt 0.000977 0.996002
vt 0.134583 0.915131
vt 0.342041 0.996704
vt 0.369629 0.003204
vt 0.369629 0.996704
vt 0.342102 0.006165
vt 0.002167 0.005707
vt 0.137207 0.856537
vt 0.137207 0.005707
vt 0.002167 0.856537
vt 0.888000 0.493134
vt 0.395630 0.002197
vt 0.395630 0.493134
vt 0.888000 0.002197
vt 0.002167 0.856537
vt 0.137207 0.005707
vt 0.002167 0.005707
vt 0.137207 0.856537
vt 0.988708 0.669434
vt 0.402374 0.520905
vt 0.988708 0.520905
vt 0.402374 0.669434
vt 0.989075 0.744232
vt 0.402374 0.520905
vt 0.402374 0.744232
vt 0.989075 0.520905
vt 0.396545 0.002167
vt 0.397827 0.496124
vt 0.902893 0.002167
vt 0.989075 0.520905
vt 0.396545 0.497375
vt 0.396545 0.002167
vt 0.902771 0.002319

vn 0.000000 0.866026 0.499999
vn 0.000000 0.866026 0.499999
vn 0.000000 0.866026 0.499999
vn 0.000000 0.866026 0.499999
vn 0.000000 0.866026 0.499999
vn 0.000000 0.866026 0.499999
vn -1.000000 0.000000 0.000000
vn -1.000000 0.000000 0.000000
vn -1.000000 0.000000 0.000000
vn -1.000000 0.000000 0.000000
vn -1.000000 0.000000 0.000000
vn 0.000000 0.926208 0.377014
vn 0.000000 0.969045 0.246885
vn 0.000000 0.926208 0.377014
vn 0.000000 0.969045 0.246885
vn 0.999997 0.002563 0.000610
vn 1.000000 0.000244 0.000854
vn 0.999954 0.009461 0.001282
vn 1.000000 0.000000 0.000427
vn 0.000000 0.866026 0.499999
vn 0.000000 0.926208 0.377014
vn 0.000000 0.926208 0.377014
vn 0.000000 0.866026 0.499999
vn 0.000000 0.866026 0.499999
vn 0.000000 0.866026 0.499999
vn 0.000000 0.866026 0.499999
vn 0.000000 0.866026 0.499999
vn 0.000000 0.926208 0.377014
vn 0.000000 0.969045 0.246885
vn 0.000000 0.969045 0.246885
vn 0.000000 0.926208 0.377014
vn 0.000000 -0.590564 0.806991
vn 0.000000 -0.590564 0.806991
vn 0.000000 -0.590564 0.806991
vn 0.000000 -0.590564 0.806991
vn 0.000000 0.866026 0.499999
vn 0.000000 0.926208 0.377014
vn 0.000000 0.866026 0.499999
vn 0.000000 0.926208 0.377014
vn 0.000000 0.000000 -1.000000
vn 0.000000 0.000000 -1.000000
vn 0.000000 0.000000 -1.000000
vn 0.000000 0.000000 -1.000000
vn 0.000000 0.866026 0.499999
vn 0.000000 0.866026 0.499999
vn 0.000000 0.866026 0.499999
vn 0.000000 0.866026 0.499999
vn 0.000000 0.000000 1.000000
vn 0.000000 0.000000 1.000000
vn 0.000000 0.000000 1.000000
vn 0.000000 0.000000 1.000000
vn 0.000000 0.000000 -1.000000
vn 0.000000 0.000000 -1.000000
vn 0.000000 0.000000 -1.000000
vn 0.000000 0.000000 -1.000000
vn 1.000000 0.000244 0.000854
vn 0.999999 0.000000 0.001282
vn 0.999954 0.009461 0.001282
vn 1.000000 0.000000 0.000427
vn -1.000000 0.000000 0.000000
vn -1.000000 0.000000 0.000000
vn -1.000000 0.000000 0.000000

g polygon0
s 1
usemtl mat4
f 1/1/1 2/2/2 3/3/3
f 1/1/1 4/4/4 2/2/2
f 5/5/5 4/4/4 1/1/1
f 5/5/5 6/6/6 4/4/4
f 7/7/7 8/8/8 9/9/9
f 7/7/7 10/10/10 8/8/8
f 11/11/11 10/10/10 7/7/7
f 12/12/12 13/13/13 14/14/14
f 12/12/12 15/15/15 13/13/13
f 16/16/16 17/17/17 18/18/18
f 16/16/16 19/19/19 17/17/17
f 20/20/20 21/21/21 22/22/22
f 20/20/20 23/23/23 21/21/21
f 24/24/24 25/25/25 26/26/26
f 24/24/24 27/27/27 25/25/25
f 28/28/28 29/29/29 30/30/30
f 28/28/28 31/31/31 29/29/29
f 32/32/32 33/33/33 34/34/34
f 32/32/32 35/35/35 33/33/33
f 36/36/36 37/37/37 38/38/38
f 36/36/36 39/39/39 37/37/37
f 40/40/40 41/41/41 42/42/42
f 40/40/40 43/43/43 41/41/41
f 44/44/44 45/45/45 46/46/46
f 44/44/44 47/47/47 45/45/45
f 48/48/48 49/49/49 50/50/50
f 48/48/48 51/51/51 49/49/49
f 52/52/52 53/53/53 54/54/54
f 52/52/52 55/55/55 53/53/53
f 56/56/56 57/57/57 58/58/58
f 17/17/17 19/19/19 59/59/59
f 60/60/60 61/61/61 62/62/62

v -5.564941 14.083008 -10.862793
v 5.577637 14.306641 -11.739746
v -5.571289 14.306641 -11.739746
v 5.577637 14.083008 -10.862793
v 5.577637 8.312988 -0.868164
v -5.571289 13.640625 -12.269043
v 5.577637 13.184082 -11.479004
v -5.571289 13.184082 -11.479004
v 5.577637 13.640625 -12.269043
v -5.571289 13.640625 -12.269043
v 5.577637 14.306641 -11.739746
v 5.577637 13.640625 -12.269043
v -5.571289 14.306641 -11.739746
v -5.564941 8.312988 -0.868164
v -5.564941 2.549316 9.114746
v 5.577637 2.549316 9.114746

vt -0.000488 1.224121
vt 0.998840 1.268860
vt -0.000488 1.268799
vt 0.998840 1.224121
vt 0.998840 0.626099
vt -0.000488 1.321106
vt 0.998840 1.366516
vt -0.000488 1.369141
vt 0.998840 1.321106
vt -0.000488 1.321106
vt 0.998840 1.268860
vt 0.998840 1.321106
vt -0.000488 1.268799
vt -0.000488 0.626099
vt -0.000488 0.000916
vt 0.998840 0.000916

vn 0.000000 0.926295 0.376798
vn 0.000000 0.968277 0.249878
vn 0.000000 0.968277 0.249878
vn 0.000000 0.926295 0.376798
vn 0.000000 0.864348 0.502894
vn 0.000000 -0.864348 -0.502894
vn 0.000000 -0.864348 -0.502894
vn 0.000000 -0.864348 -0.502894
vn 0.000000 -0.864348 -0.502894
vn 0.000000 0.624695 -0.780869
vn 0.000000 0.624695 -0.780869
vn 0.000000 0.624695 -0.780869
vn 0.000000 0.624695 -0.780869
vn 0.000000 0.864348 0.502894
vn 0.000000 0.864348 0.502894
vn 0.000000 0.864348 0.502894

g polygon1
s 1
usemtl mat2
f 63/63/63 64/64/64 65/65/65
f 63/63/63 66/66/66 64/64/64
f 67/67/67 66/66/66 63/63/63
f 68/68/68 69/69/69 70/70/70
f 68/68/68 71/71/71 69/69/69
f 72/72/72 73/73/73 74/74/74
f 72/72/72 75/75/75 73/73/73
f 76/76/76 67/67/67 63/63/63
f 76/76/76 77/77/77 67/67/67
f 78/78/78 67/67/67 77/77/77

v -5.571289 13.640625 -12.269043
v -7.931152 14.306641 -11.739746
v -5.571289 14.306641 -11.739746
v -7.955566 13.640625 -12.269043
v -5.571289 13.184082 -11.479004
v -9.137695 13.184082 -11.479004
v -9.113281 0.494629 10.500000
v -9.137695 14.083008 -10.862793
v -9.113281 1.375977 11.147461
v -7.931152 8.312988 -0.868164
v -7.912598 2.549316 9.114746
v 7.955566 14.306641 -11.739746
v 5.577637 13.640625 -12.269043
v 5.577637 14.306641 -11.739746
v 7.955566 13.640625 -12.269043
v 9.137695 14.083008 -10.862793
v 9.137695 13.184082 -11.479004
v 9.113281 0.494629 10.500000
v 5.577637 13.184082 -11.479004
v 7.915039 -0.153809 11.623535
v -7.910645 0.728516 12.269043
v -7.910645 -0.153809 11.623535
v -7.931152 14.083008 -10.862793
v 9.113281 1.375977 11.147461
v 7.955566 8.312988 -0.868164
v 7.919434 2.549316 9.114746
v 7.915039 0.728516 12.269043
v 7.955566 14.083008 -10.862793

vt 0.702789 -0.182617
vt 0.702789 -0.132111
vt 0.702789 -0.132111
vt 0.702789 -0.182617
vt 0.711578 -0.182617
vt 0.711578 -0.182617
vt 0.966278 -0.182617
vt 0.711578 -0.157776
vt 0.966278 -0.157776
vt 0.832153 -0.132111
vt 0.966278 -0.132111
vt 0.702789 -0.132111
vt 0.702789 -0.182617
vt 0.702789 -0.132111
vt 0.702789 -0.182617
vt 0.711578 -0.157776
vt 0.711578 -0.182617
vt 0.966278 -0.182617
vt 0.711578 -0.182617
vt 0.989380 -0.182617
vt 0.989380 -0.132111
vt 0.989380 -0.182617
vt 0.711578 -0.132111
vt 0.966278 -0.157776
vt 0.832153 -0.132111
vt 0.966278 -0.132111
vt 0.989380 -0.132111
vt 0.711578 -0.132111

vn 0.000000 -0.186647 -0.982427
vn -0.271244 0.765147 -0.583932
vn 0.000000 0.622139 -0.782907
vn -0.245918 -0.125370 -0.961149
vn 0.000000 -0.865958 -0.500117
vn -0.706845 -0.343321 -0.618466
vn -0.715751 -0.691520 -0.097472
vn -0.682803 0.730410 0.016785
vn -0.725274 0.382199 0.572627
vn -0.000061 0.866026 0.499999
vn 0.000000 0.866026 0.499999
vn 0.282667 0.757358 -0.588649
vn 0.000000 -0.186647 -0.982427
vn 0.000000 0.622139 -0.782907
vn 0.244195 -0.127743 -0.961276
vn 0.683267 0.729957 0.017578
vn 0.706845 -0.343321 -0.618466
vn 0.715888 -0.691291 -0.098084
vn 0.000000 -0.865958 -0.500117
vn 0.635059 -0.728258 0.257564
vn -0.673505 0.028625 0.738628
vn -0.633618 -0.729445 0.257756
vn 0.000000 0.926208 0.377014
vn 0.725408 0.382754 0.572086
vn 0.000122 0.866026 0.499999
vn 0.000000 0.866026 0.499999
vn 0.674947 0.028199 0.737327
vn 0.000000 0.926208 0.377014

g polygon2
s 1
usemtl mat3
f 79/79/79 80/80/80 81/81/81
f 79/79/79 82/82/82 80/80/80
f 83/83/83 82/82/82 79/79/79
f 83/83/83 84/84/84 82/82/82
f 85/85/85 84/84/84 83/83/83
f 85/85/85 86/86/86 84/84/84
f 87/87/87 86/86/86 85/85/85
f 87/87/87 88/88/88 86/86/86
f 89/89/89 88/88/88 87/87/87
f 90/90/90 91/91/91 92/92/92
f 90/90/90 93/93/93 91/91/91
f 94/94/94 93/93/93 90/90/90
f 94/94/94 95/95/95 93/93/93
f 96/96/96 95/95/95 94/94/94
f 96/96/96 97/97/97 95/95/95
f 98/98/98 97/97/97 96/96/96
f 87/87/87 99/99/99 89/89/89
f 87/87/87 100/100/100 99/99/99
f 85/85/85 100/100/100 87/87/87
f 85/85/85 83/83/83 100/100/100
f 86/86/86 82/82/82 84/84/84
f 86/86/86 80/80/80 82/82/82
f 101/101/101 80/80/80 86/86/86
f 102/102/102 103/103/103 104/104/104
f 102/102/102 94/94/94 103/103/103
f 96/96/96 94/94/94 102/102/102
f 102/102/102 98/98/98 96/96/96
f 102/102/102 105/105/105 98/98/98
f 104/104/104 105/105/105 102/102/102
f 97/97/97 93/93/93 95/95/95
f 97/97/97 91/91/91 93/93/93
f 106/106/106 94/94/94 90/90/90
f 106/106/106 103/103/103 94/94/94
f 86/86/86 88/88/88 101/101/101

v 8.081055 3.153809 0.568359
v 8.081055 4.801758 3.006836
v 8.081055 3.139648 1.337402
v 8.081055 10.570313 -7.000488
v 8.081055 7.924316 -7.478027
v 8.081055 10.360840 -8.388184
v -8.081055 4.801758 3.006836
v -8.081055 3.153809 0.568359
v -8.081055 3.139648 1.337402
v -8.081055 10.570313 -7.000488
v -8.081055 10.360840 -8.388184
v -8.081055 11.394043 -8.430176
v -8.081055 7.924316 -7.478027
v 8.081055 11.394043 -8.430176

vt -0.856750 0.748047
vt -0.959106 1.000549
vt -0.922180 0.818726
vt -0.049438 1.000549
vt -0.123352 0.748047
vt -0.039978 0.888733
vt -0.959106 1.000549
vt -0.856750 0.748047
vt -0.922180 0.818726
vt -0.049438 1.000549
vt -0.039978 0.888733
vt 0.011292 1.000549
vt -0.123352 0.748047
vt 0.011292 1.000549

vn 7924809334889683200000000000000000.000000 7840161470883427500000000000000000.000000 -1.#QNAN0
vn 7924809334889683200000000000000000.000000 7840161470883427500000000000000000.000000 -1.#QNAN0
vn 7924809334889683200000000000000000.000000 7840161470883427500000000000000000.000000 -1.#QNAN0
vn 7900660838543343300000000000000000.000000 0.000000 0.000000
vn 7900660838543343300000000000000000.000000 0.000000 0.000000
vn 7900660838543343300000000000000000.000000 0.000000 0.000000
vn 7924809334889683200000000000000000.000000 7840161470883427500000000000000000.000000 -1.#QNAN0
vn 7924809334889683200000000000000000.000000 7840161470883427500000000000000000.000000 -1.#QNAN0
vn 7924809334889683200000000000000000.000000 7840161470883427500000000000000000.000000 -1.#QNAN0
vn 7900660838543343300000000000000000.000000 0.000000 0.000000
vn 7924809334889683200000000000000000.000000 7840161470883427500000000000000000.000000 -1.#QNAN0
vn 7924809334889683200000000000000000.000000 7840161470883427500000000000000000.000000 -1.#QNAN0
vn 7900660838543343300000000000000000.000000 0.000000 0.000000
vn 7900660838543343300000000000000000.000000 0.000000 0.000000

g polygon3
s 1
usemtl mat1
f 107/107/107 108/108/108 109/109/109
f 107/107/107 110/110/110 108/108/108
f 111/111/111 110/110/110 107/107/107
f 111/111/111 112/112/112 110/110/110
f 113/113/113 114/114/114 115/115/115
f 113/113/113 116/116/116 114/114/114
f 117/117/117 116/116/116 118/118/118
f 117/117/117 119/119/119 116/116/116
f 119/119/119 114/114/114 116/116/116
f 120/120/120 110/110/110 112/112/112

